<?xml version="1.0" encoding="utf-8"?>
<!-- Generator: Adobe Illustrator 21.0.0, SVG Export Plug-In . SVG Version: 6.00 Build 0)  -->
<svg version="1.1" id="Layer_1" xmlns="http://www.w3.org/2000/svg" xmlns:xlink="http://www.w3.org/1999/xlink" x="0px" y="0px"
	 viewBox="0 0 297 82" style="enable-background:new 0 0 297 82;" xml:space="preserve">
<style type="text/css">
	.st0{fill:#2BB74A;}
	.st1{fill:#18160F;}
</style>
<g>
	<g>
		<g>
			<path d="M20.4,71.7H0V36.4h4.7v31.1h15.7V71.7z"/>
		</g>
		<g>
			<path d="M28.6,40.8h-5.1v-4.6h5.1V40.8z M28.3,71.7h-4.5V45.3h4.5V71.7z"/>
		</g>
		<g>
			<path d="M42,72.3c-1.8,0-3.4-0.2-5-0.7c-1.5-0.5-2.8-1-3.8-1.5v-5h0.2c0.4,0.3,0.8,0.6,1.3,1c0.5,0.4,1.2,0.7,2,1.1
				c0.8,0.3,1.6,0.7,2.5,0.9c0.9,0.3,1.9,0.4,2.8,0.4c0.7,0,1.5-0.1,2.3-0.2c0.8-0.2,1.4-0.4,1.8-0.6c0.6-0.4,1-0.7,1.2-1.2
				c0.2-0.4,0.4-1,0.4-1.8c0-1.1-0.3-1.9-0.9-2.4c-0.6-0.5-1.6-1-3.1-1.3c-0.6-0.1-1.3-0.3-2.2-0.5c-0.9-0.2-1.8-0.4-2.5-0.6
				c-2-0.6-3.5-1.5-4.4-2.7c-0.9-1.2-1.4-2.7-1.4-4.4c0-2.4,0.9-4.3,2.7-5.8s4.2-2.2,7.2-2.2c1.5,0,2.9,0.2,4.4,0.5
				c1.5,0.4,2.7,0.8,3.7,1.4v4.8h-0.2c-1.1-0.9-2.4-1.6-3.8-2.1s-2.8-0.8-4.2-0.8c-1.5,0-2.7,0.3-3.7,0.9c-1,0.6-1.5,1.5-1.5,2.8
				c0,1.1,0.3,1.9,0.9,2.5c0.6,0.5,1.6,1,2.9,1.3c0.7,0.2,1.4,0.3,2.2,0.5c0.8,0.2,1.7,0.4,2.6,0.6c2,0.5,3.4,1.3,4.4,2.4
				c1,1.1,1.5,2.7,1.5,4.6c0,1.1-0.2,2.2-0.7,3.2s-1.1,1.9-2,2.6c-0.9,0.8-2,1.4-3.2,1.8C45.3,72.1,43.8,72.3,42,72.3z"/>
		</g>
		<g>
			<path d="M64.5,72.2c-2.4,0-4.3-0.7-5.7-2.1c-1.4-1.4-2-3.6-2-6.5V48.9h-3v-3.7h3v-7.6h4.5v7.6h8.2v3.7h-8.2v12.6
				c0,1.3,0,2.4,0.1,3.1s0.2,1.4,0.5,2c0.3,0.6,0.7,1,1.3,1.2c0.6,0.3,1.4,0.4,2.4,0.4c0.7,0,1.4-0.1,2.1-0.3
				c0.7-0.2,1.2-0.4,1.5-0.5h0.3v4c-0.8,0.2-1.7,0.4-2.5,0.6C66,72.2,65.2,72.2,64.5,72.2z"/>
		</g>
		<g>
			<path d="M103.3,71.7h-4.7V41.3L89.4,62h-2.8l-9.1-20.7v30.4h-4.4V36.4h6.4l8.8,19.6l8.5-19.6h6.5V71.7z"/>
		</g>
		<g>
			<path d="M130.8,45.3l-14.2,36.2h-4.8l4.7-11L107,45.3h4.8l7.2,19.6l7.2-19.6H130.8z"/>
		</g>
		<g>
			<path class="st0" d="M164.4,71.7h-8.9V56.1h-12.1v15.6h-8.9V36.4h8.9v12.9h12.1V36.4h8.9V71.7z"/>
		</g>
		<g>
			<path class="st0" d="M196.7,58.4c0,4.4-1.2,7.8-3.6,10.3s-5.8,3.8-10.1,3.8c-4.3,0-7.7-1.3-10.1-3.8s-3.6-6-3.6-10.3
				c0-4.4,1.2-7.9,3.6-10.4s5.8-3.8,10.1-3.8c4.4,0,7.7,1.3,10.1,3.8C195.5,50.6,196.7,54,196.7,58.4z M188.2,58.5
				c0-1.6-0.1-2.9-0.4-3.9c-0.3-1-0.6-1.9-1.1-2.5c-0.5-0.7-1-1.1-1.7-1.4c-0.6-0.3-1.3-0.4-2.1-0.4c-0.7,0-1.4,0.1-2,0.3
				c-0.6,0.2-1.2,0.7-1.7,1.3c-0.5,0.6-0.9,1.5-1.1,2.5s-0.4,2.4-0.4,4s0.1,2.9,0.4,3.9c0.3,1,0.6,1.8,1,2.4c0.4,0.6,1,1.1,1.7,1.3
				c0.7,0.3,1.4,0.4,2.2,0.4c0.7,0,1.3-0.1,2-0.4c0.7-0.3,1.2-0.7,1.6-1.3c0.5-0.7,0.9-1.5,1.1-2.5
				C188.1,61.5,188.2,60.2,188.2,58.5z"/>
		</g>
		<g>
			<path class="st0" d="M232.9,71.7V58.4c0-1.3,0-2.4-0.1-3.3c0-0.9-0.2-1.6-0.4-2.2c-0.2-0.6-0.6-1-1.1-1.2s-1.2-0.4-2.1-0.4
				c-0.6,0-1.3,0.1-1.9,0.4c-0.6,0.3-1.3,0.7-2,1.2v18.8H217V58.4c0-1.3,0-2.4-0.1-3.3c-0.1-0.9-0.2-1.6-0.4-2.2
				c-0.2-0.6-0.6-1-1.1-1.2s-1.2-0.4-2.1-0.4c-0.7,0-1.3,0.2-2,0.5c-0.6,0.3-1.3,0.7-1.9,1.1v18.8h-8.3V45.1h8.3V48
				c1.4-1.2,2.6-2.1,3.8-2.7c1.2-0.6,2.5-1,4-1c1.6,0,3.1,0.4,4.3,1.2c1.2,0.8,2.2,1.9,2.8,3.5c1.6-1.5,3.1-2.6,4.5-3.4
				c1.4-0.8,2.8-1.2,4.3-1.2c1.2,0,2.3,0.2,3.3,0.6c1,0.4,1.8,1,2.5,1.8c0.7,0.9,1.3,1.9,1.7,3c0.4,1.2,0.6,2.7,0.6,4.6v17.3H232.9z
				"/>
		</g>
		<g>
			<path class="st0" d="M261,72.4c-5,0-8.9-1.2-11.5-3.6c-2.7-2.4-4-5.8-4-10.3c0-4.3,1.2-7.8,3.7-10.4c2.5-2.6,6-3.9,10.5-3.9
				c4.1,0,7.1,1.1,9.2,3.3c2.1,2.2,3.1,5.3,3.1,9.4v3h-18.2c0.1,1.2,0.3,2.3,0.8,3.1c0.4,0.8,1,1.5,1.8,2c0.7,0.5,1.5,0.8,2.5,1.1
				c0.9,0.2,2,0.3,3.1,0.3c1,0,1.9-0.1,2.8-0.3c0.9-0.2,1.8-0.5,2.6-0.8c0.7-0.3,1.3-0.6,1.9-1s1-0.7,1.4-0.9h0.9v6.8
				c-0.7,0.3-1.3,0.5-1.9,0.7c-0.6,0.2-1.3,0.5-2.3,0.7c-0.9,0.2-1.8,0.4-2.8,0.6C263.5,72.3,262.4,72.4,261,72.4z M263.7,55
				c0-1.8-0.5-3.1-1.2-4c-0.8-0.9-1.9-1.4-3.5-1.4c-1.6,0-2.9,0.5-3.8,1.4c-0.9,1-1.4,2.3-1.5,3.9H263.7z"/>
		</g>
		<g>
			<path class="st0" d="M284.3,72.4c-2,0-3.8-0.2-5.6-0.6c-1.7-0.4-3.2-0.9-4.3-1.5v-7h0.7c0.4,0.3,0.8,0.6,1.3,1
				c0.5,0.4,1.2,0.7,2.1,1.1c0.8,0.4,1.6,0.7,2.6,0.9c1,0.3,2,0.4,3.2,0.4c1.2,0,2.2-0.2,3.1-0.5c0.9-0.4,1.3-0.9,1.3-1.7
				c0-0.6-0.2-1.1-0.6-1.4c-0.4-0.3-1.2-0.6-2.4-0.9c-0.6-0.2-1.4-0.3-2.4-0.5c-1-0.2-1.8-0.4-2.6-0.6c-2.1-0.6-3.6-1.6-4.7-2.9
				s-1.6-2.9-1.6-5c0-1.2,0.3-2.3,0.8-3.4c0.5-1,1.3-2,2.4-2.8c1.1-0.8,2.4-1.4,3.9-1.9c1.6-0.5,3.3-0.7,5.3-0.7
				c1.9,0,3.6,0.2,5.1,0.6c1.6,0.4,2.9,0.8,4,1.3V53h-0.7c-0.3-0.2-0.7-0.5-1.3-0.9c-0.6-0.4-1.2-0.7-1.8-1
				c-0.7-0.3-1.5-0.6-2.3-0.8c-0.9-0.2-1.7-0.3-2.6-0.3c-1.2,0-2.2,0.2-3,0.6c-0.8,0.4-1.2,1-1.2,1.6c0,0.6,0.2,1.1,0.6,1.4
				c0.4,0.3,1.3,0.7,2.7,1c0.7,0.2,1.5,0.3,2.5,0.5c0.9,0.2,1.8,0.4,2.7,0.7c1.9,0.6,3.4,1.5,4.3,2.7c1,1.2,1.5,2.8,1.5,4.7
				c0,1.2-0.3,2.4-0.9,3.6c-0.6,1.1-1.4,2.1-2.5,2.9c-1.1,0.8-2.5,1.5-4,1.9C288.2,72.2,286.4,72.4,284.3,72.4z"/>
		</g>
	</g>
	<g>
		<polygon class="st1" points="257.2,41.2 221.7,5.7 186.1,41.2 183.2,38.4 221.7,0 260.1,38.4 		"/>
	</g>
	<g>
		<polygon class="st1" points="206.7,8.8 192.6,8.8 192.6,22.9 		"/>
	</g>
</g>
</svg>
